<svg xmlns="http://www.w3.org/2000/svg" xmlns:xlink="http://www.w3.org/1999/xlink" stroke-width="3" stroke="#7A7E7F" version="1.1" x="0px" y="0px" viewBox="0 0 100 100" style="enable-background:new 0 0 100 100;" xml:space="preserve"><style type="text/css">
	.st0{fill-rule:evenodd;clip-rule:evenodd;}
</style><path class="st0" d="M12.051,7.708h29.881c2.413,0,4.38,1.967,4.38,4.38v29.88c0,2.414-1.966,4.38-4.38,4.38H12.051  c-2.414,0-4.38-1.967-4.38-4.38v-29.88C7.671,9.675,9.637,7.708,12.051,7.708L12.051,7.708z M72.965,7.678  c17.184,0,25.843,20.874,13.683,33.034c-12.16,12.16-33.034,3.501-33.034-13.683C53.614,16.342,62.278,7.678,72.965,7.678  L72.965,7.678z M83.475,16.518c-9.34-9.34-25.374-2.69-25.374,10.511c0,13.201,16.034,19.85,25.374,10.51  C89.28,31.734,89.279,22.323,83.475,16.518L83.475,16.518z M58.025,53.682h29.881c2.414,0,4.38,1.967,4.38,4.38v29.88  c0,2.413-1.966,4.38-4.38,4.38H58.025c-2.414,0-4.38-1.966-4.38-4.38v-29.88C53.645,55.649,55.611,53.682,58.025,53.682  L58.025,53.682z M87.798,58.169H58.132v29.667h29.667V58.169L87.798,58.169z M12.051,53.682h29.881c2.414,0,4.38,1.967,4.38,4.38  v29.88c0,2.413-1.966,4.38-4.38,4.38H12.051c-2.413,0-4.38-1.967-4.38-4.38v-29.88C7.671,55.649,9.637,53.682,12.051,53.682  L12.051,53.682z M41.824,58.169H12.158v29.667h29.667V58.169L41.824,58.169z M41.824,12.195H12.158v29.667h29.667V12.195z"/></svg>